<?xml version="1.0" encoding="iso-8859-1"?>
<!-- Generator: Adobe Illustrator 19.0.0, SVG Export Plug-In . SVG Version: 6.00 Build 0)  -->
<svg version="1.1" id="Capa_1" xmlns="http://www.w3.org/2000/svg" xmlns:xlink="http://www.w3.org/1999/xlink" x="0px" y="0px"
	 viewBox="0 0 511.984 511.984" style="enable-background:new 0 0 511.984 511.984;" xml:space="preserve">
<g>
	<g>
		<path d="M508.864,184.397L359.531,35.064c-3.989-4.011-11.072-4.011-15.083,0L97.301,282.211
			c-10.069,10.091-15.616,23.467-15.616,37.717c0,14.251,5.547,27.648,15.616,37.717l64,64
			c10.069,10.069,23.467,15.616,37.717,15.616h49.963c14.251,0,27.648-5.547,37.717-15.616L508.864,199.48
			C513.024,195.32,513.024,188.557,508.864,184.397z M271.637,406.584c-6.059,6.037-14.08,9.365-22.635,9.365h-49.984
			c-8.555,0-16.576-3.328-22.635-9.365l-64-64c-6.037-6.059-9.365-14.08-9.365-22.635s3.328-16.597,9.365-22.635L352,57.677
			l134.251,134.251L271.637,406.584z"/>
	</g>
</g>
<g>
	<g>
		<path d="M338.197,355.064L188.864,205.731c-4.16-4.16-10.923-4.16-15.083,0c-4.16,4.16-4.16,10.923,0,15.083l149.333,149.333
			c2.091,2.069,4.821,3.115,7.552,3.115c2.731,0,5.461-1.045,7.531-3.115C342.357,365.987,342.357,359.224,338.197,355.064z"/>
	</g>
</g>
<g>
	<g>
		<path d="M117.333,415.928H10.667C4.779,415.928,0,420.707,0,426.595c0,5.888,4.779,10.667,10.667,10.667h106.667
			c5.888,0,10.667-4.779,10.667-10.667C128,420.707,123.221,415.928,117.333,415.928z"/>
	</g>
</g>
<g>
	<g>
		<path d="M309.333,458.595h-192c-5.888,0-10.667,4.779-10.667,10.667s4.779,10.667,10.667,10.667h192
			c5.888,0,10.667-4.779,10.667-10.667S315.221,458.595,309.333,458.595z"/>
	</g>
</g>
<g>
</g>
<g>
</g>
<g>
</g>
<g>
</g>
<g>
</g>
<g>
</g>
<g>
</g>
<g>
</g>
<g>
</g>
<g>
</g>
<g>
</g>
<g>
</g>
<g>
</g>
<g>
</g>
<g>
</g>
</svg>
